# xmcd CD database file
#
# Track frame offsets:
#	150
#	2253
#	8003
#	13917
#	19424
#	25413
#	33543
#	42102
#	47876
#	56176
#	65442
#	73011
#	84647
#	99564
#
# Disc length: 1462 seconds
#
# Revision: 1
# Processed by: cddbd v1.5.2PL0 Copyright (c) Steve Scherf et al.
# Submitted via: CDex 1.51
#
DISCID=b405b40e
DTITLE=Barry Galbraith - Guitar Solos Vol. 1
DYEAR=1900
DGENRE=Jazz
TTITLE0=Tuning Notes
TTITLE1=For All We Know
TTITLE2=Darn That Dream
TTITLE3=My Funny Valentine
TTITLE4=Alone Together
TTITLE5=I Can't Get Started
TTITLE6=As Time Goes By
TTITLE7=Have You Met Miss Jones
TTITLE8=Born to be Blue
TTITLE9=Embraceable You
TTITLE10=You Go To My Head
TTITLE11=In a Sentimental Mood
TTITLE12='Round Midnight
TTITLE13=Good Morning Heartache
EXTD=
EXTT0=
EXTT1=
EXTT2=
EXTT3=
EXTT4=
EXTT5=
EXTT6=
EXTT7=
EXTT8=
EXTT9=
EXTT10=
EXTT11=
EXTT12=
EXTT13=
PLAYORDER=
